<svg viewBox="0 0 600 200" xmlns="http://www.w3.org/2000/svg">
<g fill="none" stroke="#8FE0FF" stroke-width="1.5">
<rect x="60" y="50" width="60" height="26"/><rect x="120" y="50" width="60" height="26"/><rect x="180" y="50" width="60" height="26"/>
<rect x="240" y="50" width="60" height="26"/><rect x="300" y="50" width="60" height="26"/><rect x="360" y="50" width="60" height="26"/>
<rect x="420" y="50" width="60" height="26"/><rect x="480" y="50" width="60" height="26"/>
<rect x="90" y="76" width="60" height="26"/><rect x="150" y="76" width="60" height="26"/><rect x="210" y="76" width="60" height="26"/>
<rect x="270" y="76" width="60" height="26"/><rect x="330" y="76" width="60" height="26"/><rect x="390" y="76" width="60" height="26"/>
<rect x="450" y="76" width="60" height="26"/>
<rect x="60" y="102" width="60" height="26"/><rect x="120" y="102" width="60" height="26"/><rect x="180" y="102" width="60" height="26"/>
<rect x="240" y="102" width="60" height="26"/><rect x="300" y="102" width="60" height="26"/><rect x="360" y="102" width="60" height="26"/>
<rect x="420" y="102" width="60" height="26"/><rect x="480" y="102" width="60" height="26"/>
</g>
<text x="300" y="150" fill="#5C7E96" font-size="11" text-anchor="middle" font-family="IBM Plex Mono, monospace">STRETCHER BOND MASONRY</text>
</svg>