<svg viewBox="0 0 600 220" xmlns="http://www.w3.org/2000/svg">
<line x1="60" y1="170" x2="540" y2="170" stroke="#8FE0FF" stroke-width="3"/>
<line x1="60" y1="70" x2="540" y2="70" stroke="#8FE0FF" stroke-width="3"/>
<line x1="60" y1="170" x2="60" y2="70" stroke="#8FE0FF" stroke-width="2"/>
<line x1="540" y1="170" x2="540" y2="70" stroke="#8FE0FF" stroke-width="2"/>
<g stroke="#F2A93C" stroke-width="2">
<line x1="60" y1="170" x2="140" y2="70"/>
<line x1="140" y1="170" x2="220" y2="70"/>
<line x1="220" y1="170" x2="300" y2="70"/>
<line x1="300" y1="170" x2="380" y2="70"/>
<line x1="380" y1="170" x2="460" y2="70"/>
<line x1="460" y1="170" x2="540" y2="70"/>
</g>
<g stroke="#8FE0FF" stroke-width="2">
<line x1="140" y1="170" x2="140" y2="70"/>
<line x1="220" y1="170" x2="220" y2="70"/>
<line x1="300" y1="170" x2="300" y2="70"/>
<line x1="380" y1="170" x2="380" y2="70"/>
<line x1="460" y1="170" x2="460" y2="70"/>
</g>
<polygon points="60,170 45,200 75,200" fill="#EDEFF2"/>
<polygon points="540,170 525,200 555,200" fill="#EDEFF2"/>
<text x="300" y="210" fill="#5C7E96" font-size="11" text-anchor="middle" font-family="IBM Plex Mono, monospace">PRATT TRUSS</text>
</svg>