<svg viewBox="0 0 600 260" xmlns="http://www.w3.org/2000/svg">
<rect width="600" height="260" fill="none"/>
<line x1="60" y1="90" x2="540" y2="90" stroke="#EDEFF2" stroke-width="4"/>
<polygon points="60,90 45,120 75,120" fill="#8FE0FF"/>
<circle cx="52" cy="122" r="4" fill="#8FE0FF"/><circle cx="68" cy="122" r="4" fill="#8FE0FF"/>
<polygon points="540,90 525,120 555,120" fill="#8FE0FF"/>
<line x1="515" y1="122" x2="565" y2="122" stroke="#8FE0FF" stroke-width="2"/>
<line x1="300" y1="30" x2="300" y2="88" stroke="#F2A93C" stroke-width="3" marker-end="url(#arrow)"/>
<defs><marker id="arrow" markerWidth="10" markerHeight="10" refX="5" refY="8" orient="auto"><path d="M0,0 L10,0 L5,10 Z" fill="#F2A93C"/></marker></defs>
<text x="300" y="22" fill="#F2A93C" font-size="14" text-anchor="middle" font-family="IBM Plex Mono, monospace">P</text>
<text x="60" y="145" fill="#5C7E96" font-size="12" text-anchor="middle" font-family="IBM Plex Mono, monospace">A</text>
<text x="540" y="145" fill="#5C7E96" font-size="12" text-anchor="middle" font-family="IBM Plex Mono, monospace">B</text>
<polygon points="60,180 300,235 540,180 60,180" fill="#8FE0FF" opacity="0.25"/>
<polyline points="60,180 300,235 540,180" fill="none" stroke="#8FE0FF" stroke-width="2.5"/>
<line x1="60" y1="180" x2="540" y2="180" stroke="#5C7E96" stroke-width="1"/>
<text x="300" y="252" fill="#5C7E96" font-size="11" text-anchor="middle" font-family="IBM Plex Mono, monospace">BENDING MOMENT DIAGRAM</text>
</svg>